<svg xmlns="http://www.w3.org/2000/svg" width="40" height="40" viewBox="0 0 40 40" fill="none">
  <path d="M34.167 16.9833H29.3503C25.4003 16.9833 22.1837 13.7666 22.1837 9.81659V4.99992C22.1837 4.08325 21.4337 3.33325 20.517 3.33325H13.4503C8.31699 3.33325 4.16699 6.66659 4.16699 12.6166V27.3833C4.16699 33.3333 8.31699 36.6666 13.4503 36.6666H26.5503C31.6837 36.6666 35.8337 33.3333 35.8337 27.3833V18.6499C35.8337 17.7333 35.0837 16.9833 34.167 16.9833ZM20.467 26.2999L17.1337 29.6333C17.017 29.7499 16.867 29.8499 16.717 29.8999C16.567 29.9666 16.417 29.9999 16.2503 29.9999C16.0837 29.9999 15.9337 29.9666 15.7837 29.8999C15.6503 29.8499 15.517 29.7499 15.417 29.6499C15.4003 29.6333 15.3837 29.6333 15.3837 29.6166L12.0503 26.2833C11.567 25.7999 11.567 24.9999 12.0503 24.5166C12.5337 24.0333 13.3337 24.0333 13.817 24.5166L15.0003 25.7333V18.7499C15.0003 18.0666 15.567 17.4999 16.2503 17.4999C16.9337 17.4999 17.5003 18.0666 17.5003 18.7499V25.7333L18.7003 24.5333C19.1837 24.0499 19.9837 24.0499 20.467 24.5333C20.9503 25.0166 20.9503 25.8166 20.467 26.2999Z" fill="#292D32"/>
  <path d="M29.0501 14.6834C30.6335 14.7001 32.8335 14.7001 34.7168 14.7001C35.6668 14.7001 36.1668 13.5834 35.5001 12.9167C33.1001 10.5001 28.8001 6.15007 26.3335 3.6834C25.6501 3.00007 24.4668 3.46674 24.4668 4.41674V10.2334C24.4668 12.6667 26.5335 14.6834 29.0501 14.6834Z" fill="#292D32"/>
</svg>